<?xml version="1.0" encoding="UTF-8" standalone="no"?>
<!-- Created with Inkscape (http://www.inkscape.org/) -->

<svg
   width="210mm"
   height="297mm"
   viewBox="0 0 210 297"
   version="1.1"
   id="svg5"
   xml:space="preserve"
   inkscape:version="1.2 (dc2aedaf03, 2022-05-15)"
   sodipodi:docname="Commons_Logo_White_Bordered.svg"
   xmlns:inkscape="http://www.inkscape.org/namespaces/inkscape"
   xmlns:sodipodi="http://sodipodi.sourceforge.net/DTD/sodipodi-0.dtd"
   xmlns="http://www.w3.org/2000/svg"
   xmlns:svg="http://www.w3.org/2000/svg"><sodipodi:namedview
     id="namedview7"
     pagecolor="#ffffff"
     bordercolor="#000000"
     borderopacity="0.25"
     inkscape:showpageshadow="2"
     inkscape:pageopacity="0.0"
     inkscape:pagecheckerboard="0"
     inkscape:deskcolor="#d1d1d1"
     inkscape:document-units="mm"
     showgrid="false"
     inkscape:zoom="0.914906"
     inkscape:cx="216.41568"
     inkscape:cy="562.89936"
     inkscape:window-width="2560"
     inkscape:window-height="1334"
     inkscape:window-x="3061"
     inkscape:window-y="-11"
     inkscape:window-maximized="1"
     inkscape:current-layer="layer1" /><defs
     id="defs2" /><g
     inkscape:label="Layer 1"
     inkscape:groupmode="layer"
     id="layer1"><path
       style="fill:#ffffff;stroke-width:1.5875;fill-opacity:1;stroke:#000000;stroke-opacity:1;stroke-dasharray:none"
       d="m -18.008769,217.6778 c -3.627163,-4.23131 -8.741341,-8.2524 -13.597829,-10.69147 -7.345495,-3.68913 -14.920754,-5.14834 -29.682012,-5.71762 -1.56844,-0.0605 -1.58846,-0.0711 -1.66779,-0.88599 -0.17062,-1.75267 5.25923,-7.41433 10.36262,-10.80501 21.629252,-14.37043 63.362895,-22.26774 150.319753,-28.44521 12.769057,-0.90712 42.106227,-2.6934 60.854167,-3.70528 5.38427,-0.2906 10.98021,-0.59406 12.43541,-0.67434 1.45521,-0.0803 10.20631,-0.56191 19.44688,-1.07029 45.35403,-2.49517 52.67372,-3.18798 60.16741,-5.69487 5.58126,-1.86711 10.13944,-5.17109 12.08543,-8.76007 0.82902,-1.52894 0.90418,-1.85567 0.90127,-3.91703 -0.003,-1.79083 -0.11885,-2.46455 -0.57107,-3.30729 -0.95697,-1.78338 -2.92632,-3.237 -4.982,-3.67732 -0.73382,-0.15718 -0.84167,-0.0794 -1.42817,1.03046 -1.66563,3.15177 -6.01004,6.65226 -9.92497,7.997 -1.91302,0.6571 -2.5078,0.73527 -5.59435,0.73527 h -3.45376 l -2.01907,-0.9981 c -3.24855,-1.60587 -5.04277,-4.18694 -5.42157,-7.79929 -0.0801,-0.76399 -0.22948,-1.38907 -0.3319,-1.38907 -0.10242,0 -0.98927,0.9516 -1.97074,2.11466 -4.89107,5.79588 -9.73434,8.908 -14.30547,9.19218 -2.57582,0.16014 -4.05651,-0.20368 -5.31072,-1.3049 -1.40943,-1.23748 -2.03419,-2.67022 -2.16939,-4.97485 -0.16624,-2.83341 0.47699,-5.2147 3.86664,-14.31457 4.08861,-10.97631 4.42167,-12.01694 4.12033,-12.87381 -0.1371,-0.38984 -0.57435,-0.89107 -0.97168,-1.11385 -0.6735,-0.37763 -0.80457,-0.36151 -1.93535,0.23795 -3.31835,1.75917 -8.59091,8.7315 -11.27133,14.9049 -0.58356,1.34406 -2.52973,6.35812 -4.32482,11.14236 -1.79509,4.78423 -3.36182,8.78975 -3.48165,8.90116 -0.36029,0.33498 -11.24601,0.84666 -11.54978,0.54289 -0.17685,-0.17683 1.02521,-3.56404 3.61527,-10.18744 2.1341,-5.45739 3.88019,-9.98231 3.88019,-10.05537 0,-0.0731 -0.42908,0.15833 -0.95353,0.51422 -0.52443,0.35589 -1.77115,0.91041 -2.77048,1.23227 l -1.81695,0.58519 -1.44528,2.92694 c -2.87531,5.82296 -6.26145,10.27204 -10.09809,13.2679 -2.41372,1.88477 -5.76752,3.57965 -8.08956,4.08815 -2.23491,0.48941 -6.58481,0.20796 -8.51562,-0.551 -2.70569,-1.06354 -4.89874,-3.47614 -5.90747,-6.49889 -0.23746,-0.71159 -0.4627,-1.33206 -0.50051,-1.37883 -0.0378,-0.0468 -1.47909,1.32866 -3.20282,3.05651 -5.18897,5.20136 -9.22513,7.46522 -13.32052,7.4714 -5.13711,0.008 -7.77548,-3.54026 -6.89761,-9.27574 0.45963,-3.00295 1.37684,-5.75362 4.84457,-14.52859 3.91359,-9.90322 4.16493,-11.37708 1.94015,-11.37708 -1.64839,0 -4.5414,2.29494 -6.99093,5.54572 -2.65332,3.52121 -4.57303,7.83534 -11.69297,26.27739 -1.10291,2.85674 -1.52562,3.6698 -1.9547,3.75974 -0.88792,0.18612 -7.50201,0.66506 -9.18431,0.66506 -1.37773,0 -1.549618,-0.0592 -1.549618,-0.53382 0,-0.2936 1.080648,-3.29992 2.401428,-6.68073 6.3568,-16.27144 8.97566,-23.60639 8.97566,-25.13923 0,-2.35577 -1.32498,-2.9108 -3.56201,-1.49212 -2.78472,1.76602 -5.96381,5.75729 -8.834671,11.09173 -1.223381,2.2732 -3.495554,7.98194 -6.739758,16.93334 -1.239398,3.41974 -2.331013,6.41561 -2.425814,6.65749 -0.182382,0.46534 -0.951187,0.54734 -8.269522,0.88207 l -3.241146,0.14824 v -0.63564 c 0,-0.65029 0.294693,-1.57783 1.315897,-4.14175 l 0.579609,-1.4552 -2.072232,1.99403 c -3.656126,3.51814 -6.114936,5.04332 -8.992806,5.57816 -4.737346,0.88041 -8.101391,-1.33418 -8.487034,-5.58713 -0.273249,-3.01344 0.613661,-5.96619 5.182343,-17.25335 1.16078,-2.86776 2.499614,-6.3537 2.975184,-7.74654 0.964258,-2.82408 0.912294,-3.51559 -0.333891,-4.4433 l -0.704808,-0.52469 -1.279567,0.61698 c -1.810679,0.87307 -5.803138,4.9228 -7.580087,7.68882 -2.673078,4.16094 -4.188809,7.71737 -10.107613,23.71591 -1.455986,3.93554 -1.891702,4.85555 -2.347166,4.95604 -1.202693,0.26533 -10.097706,0.55329 -10.34887,0.33503 -0.349247,-0.3035 1.191326,-4.78402 6.771674,-19.69435 4.706446,-12.57532 5.033947,-13.78459 3.989263,-14.73002 -1.940147,-1.75581 -7.048862,2.28279 -10.741633,8.49159 -2.304896,3.87532 -6.272691,13.11416 -10.084781,23.48198 -0.695574,1.89177 -1.356897,3.54506 -1.469607,3.67397 -0.200509,0.22932 -8.397716,1.18614 -10.359186,1.20917 -0.670679,0.008 -0.992188,-0.10613 -0.992188,-0.35182 0,-0.38889 4.17915,-11.64094 6.849057,-18.44057 0.889686,-2.26583 1.61761,-4.20228 1.61761,-4.30324 0,-0.10095 -0.466564,0.1252 -1.03681,0.50257 -0.570245,0.37737 -2.064633,1.07285 -3.320862,1.5455 l -2.28405,0.85937 -1.144225,2.80763 c -4.723397,11.59002 -12.24371,19.0358 -20.5239,20.32052 -4.639252,0.71981 -9.191546,-1.23159 -11.643021,-4.99092 -0.391311,-0.60008 -0.415891,-0.57933 -2.037792,1.71979 -8.448066,11.97556 -20.34274,18.50267 -31.014567,17.01898 -10.05073,-1.39734 -16.11568,-7.87115 -18.19195,-19.41838 -0.66882,-3.7196 -0.59302,-11.19794 0.16126,-15.9109 2.35504,-14.71498 9.44067,-30.27575 19.51745,-42.862318 9.053315,-11.308204 20.631637,-19.107538 31.063801,-20.925054 2.959451,-0.515604 7.70129,-0.380966 10.159875,0.288473 5.902497,1.607169 9.897938,5.613923 11.13278,11.164299 1.986095,8.927113 -4.069932,19.94857 -11.333982,20.6269 -2.995118,0.27969 -6.28109,-1.1846 -6.28109,-2.79897 0,-0.30628 0.757883,-1.37427 1.716482,-2.418841 2.828491,-3.082152 4.434734,-6.616017 4.801664,-10.564044 0.360616,-3.88008 -0.396251,-5.985997 -2.551531,-7.099414 -1.026467,-0.530272 -1.477047,-0.598953 -3.305156,-0.503798 -3.991272,0.207751 -8.092784,2.581394 -13.115224,7.590088 -10.774378,10.744896 -19.796421,29.304009 -22.899299,47.105799 -0.68689,3.94087 -0.68782,11.56432 -0.002,14.15521 1.52553,5.76078 4.712966,8.60448 9.633973,8.59505 6.751349,-0.0129 13.116983,-4.31188 19.290296,-13.02742 0.84005,-1.18599 1.117315,-1.85766 1.256025,-3.04271 1.341789,-11.46323 9.514898,-24.60477 18.779487,-30.19554 4.27645,-2.58065 9.417076,-3.23806 12.604535,-1.61194 1.376559,0.70227 3.23432,2.68519 4.182666,4.46447 1.278916,2.3995 1.711328,4.64213 1.70239,8.82915 -0.0077,3.58667 0.0011,3.64178 0.551415,3.48022 0.866889,-0.2545 3.917217,-2.09834 5.366338,-3.2438 1.411964,-1.11609 1.157239,-0.5717 5.116353,-10.93467 0.592659,-1.55129 1.221701,-2.93706 1.397868,-3.07949 0.329144,-0.26612 7.900551,-1.11656 9.91145,-1.11327 0.915596,0.002 1.124479,0.0924 1.124479,0.48958 0,0.6512 -0.802372,2.93929 -1.80059,5.13465 -0.44663,0.98226 -0.748728,1.78593 -0.671327,1.78593 0.0774,0 0.971418,-0.88949 1.986703,-1.97664 4.353327,-4.66165 8.987123,-7.28377 12.871678,-7.28377 2.190096,0 3.465504,0.49228 4.851923,1.87276 1.180637,1.17558 1.704859,2.31577 2.195857,4.77601 0.132453,0.6637 0.270012,0.56649 2.995236,-2.11667 4.136157,-4.07231 7.399311,-5.83287 11.239773,-6.06416 3.509174,-0.21134 5.635161,0.80763 6.783906,3.25148 1.635397,3.47915 0.968745,6.89491 -3.405765,17.45029 -4.575519,11.04041 -5.225097,14.16778 -2.942751,14.16778 0.386366,0 0.996865,-0.19591 1.356664,-0.43536 2.218534,-1.47645 6.107695,-6.17404 8.522523,-10.29407 1.148493,-1.95948 4.001889,-8.98154 8.111614,-19.96223 0.898652,-2.40109 1.727824,-4.51749 1.842606,-4.70311 0.137414,-0.22222 1.376688,-0.42291 3.628482,-0.58759 5.066313,-0.37053 7.244133,-0.34041 7.414113,0.10255 0.0777,0.20246 -0.34277,1.65254 -0.93434,3.2224 -0.59158,1.56987 -1.0756,2.88674 -1.0756,2.92639 0,0.0396 0.8632,-0.78785 1.91822,-1.83889 4.05893,-4.04359 7.7896,-6.23675 10.99497,-6.46363 0.97415,-0.069 2.25375,0.005 2.84356,0.16484 2.18301,0.59078 4.03308,2.87896 4.47722,5.53748 l 0.19021,1.13856 2.46837,-2.38792 c 2.84933,-2.75647 5.91689,-4.86033 8.03834,-5.51304 0.95564,-0.29402 2.37172,-0.45634 3.9941,-0.45782 2.09034,-0.002 2.69809,0.0963 3.6096,0.58316 1.54425,0.82486 2.94634,2.56947 3.44581,4.2876 0.93714,3.22362 0.0287,7.05149 -3.74083,15.76298 -2.7981,6.46646 -3.6737,8.79059 -4.25372,11.29079 -0.44847,1.93314 -0.44891,2.06413 -0.009,2.7353 0.37539,0.57291 0.59243,0.67215 1.15904,0.52994 1.06807,-0.26807 2.98646,-1.78912 5.12906,-4.06671 2.89725,-3.0798 3.82033,-4.56425 4.59412,-7.38808 4.23923,-15.47041 17.37041,-28.537588 27.5791,-27.444644 4.25243,0.455268 7.37465,3.324264 8.64798,7.946614 0.52898,1.9203 0.81307,7.88847 0.47398,9.95748 l -0.24554,1.4982 0.67646,-0.25719 c 1.36949,-0.52067 3.75264,-1.90595 4.65858,-2.70792 0.8083,-0.71556 1.28648,-1.75539 3.60378,-7.83649 1.46952,-3.8563 2.83805,-7.333539 3.0412,-7.727194 0.43778,-0.848357 0.48887,-0.859223 6.68414,-1.421778 3.28689,-0.298463 4.6776,-0.336079 4.88162,-0.132043 0.31321,0.313198 -0.42357,3.160925 -1.52842,5.907575 -0.33658,0.83675 -0.59415,1.52136 -0.57238,1.52136 0.0217,0 1.3474,-1.28526 2.94582,-2.85612 4.61447,-4.534945 7.14952,-5.926751 10.84371,-5.953479 2.40228,-0.01738 3.85498,0.546637 5.20509,2.020895 0.8554,0.934072 1.80637,3.671514 1.80637,5.199844 0,3.0464 -1.50543,8.05531 -4.77163,15.87636 -2.82151,6.75625 -3.74528,9.52751 -3.64334,10.93002 0.0769,1.05827 0.12266,1.11207 1.00905,1.18683 1.30897,0.11042 3.05524,-1.11883 5.40091,-3.80184 5.19316,-5.94006 8.87087,-12.24545 16.94704,-29.055349 2.29946,-4.786151 4.44111,-6.050439 10.32219,-6.093523 2.82204,-0.02066 2.91655,-0.0027 2.99794,0.569983 0.0462,0.325234 -0.36852,1.634922 -0.92163,2.910417 -1.80456,4.161536 -1.55048,7.143102 1.22129,14.331002 1.81692,4.71181 2.32384,6.35567 2.9404,9.53556 0.29794,1.5368 0.62444,3.20242 0.72548,3.70138 0.16585,0.81877 0.35428,0.97689 1.93337,1.62227 2.37384,0.97022 4.56972,2.41531 6.17424,4.06321 5.00596,5.14133 5.14339,14.38448 0.31448,21.15161 -4.82613,6.76322 -15.33951,11.08195 -34.82896,14.30721 -10.34986,1.71278 -21.5941,2.93221 -59.92812,6.49919 -27.82873,2.58946 -50.34574,5.029 -66.14584,7.16638 -43.233304,5.84846 -73.928364,13.14734 -94.95459,22.57896 -10.199999,4.57536 -19.12966,10.63525 -24.77717,16.81439 -1.491218,1.6316 -2.36865,2.38854 -2.768751,2.38854 -0.399502,0 -1.108493,-0.60985 -2.230061,-1.91823 z m 15.85388,-68.72466 c 1.670151,-0.85278 3.91142,-3.24056 5.358006,-5.70825 1.250434,-2.13309 3.377602,-6.48877 3.369384,-6.8993 -0.0024,-0.12408 -0.674725,-0.51588 -1.493869,-0.87067 -3.248099,-1.40681 -5.936052,-4.91615 -6.5482,-8.5492 l -0.314229,-1.86493 -0.835631,1.30222 c -2.091865,3.25989 -4.724823,9.9934 -5.614231,14.3578 -0.902986,4.43103 -0.646319,7.42092 0.730726,8.51221 0.614802,0.48722 0.96669,0.55196 2.438284,0.44856 1.068332,-0.0751 2.170554,-0.351 2.90976,-0.72844 z M 164.96289,136.67422 c 2.60125,-1.21121 5.47505,-4.73795 8.07244,-9.90657 0.70588,-1.40465 1.28434,-2.64078 1.28548,-2.74697 0,-0.10618 -0.45273,-0.42506 -1.00854,-0.70861 -2.53407,-1.29279 -4.93482,-4.09549 -5.76101,-6.72559 -0.23643,-0.75272 -0.5062,-2.49966 -0.59947,-3.88211 l -0.16957,-2.51354 -2.42699,4.89479 c -3.90324,7.87202 -5.41288,12.54569 -5.46963,16.93333 -0.0383,2.9583 0.35023,3.93811 1.88214,4.74695 1.31998,0.69693 2.55966,0.66984 4.19515,-0.0917 z m 79.12045,-6.50184 c 3.61034,-2.07067 3.94459,-7.42768 1.14765,-18.39405 -1.65108,-6.47367 -1.1049,-6.56315 -4.86344,0.79679 -3.04228,5.95735 -5.7776,10.77928 -6.71509,11.8377 -0.38627,0.43608 -0.33949,0.4539 0.78663,0.29955 1.4033,-0.19235 1.38938,-0.20773 2.08478,2.30173 0.89472,3.22867 1.68135,3.92027 4.47397,3.93344 1.43074,0.007 1.94932,-0.12353 3.0855,-0.77516 z M 8.693901,129.30697 c 1.19e-4,-0.0364 0.185192,-0.9528 0.411273,-2.0365 0.588235,-2.81964 0.538102,-6.33227 -0.111328,-7.80042 -0.563835,-1.27464 -1.188432,-1.7386 -2.340563,-1.7386 -1.770065,0 -2.971331,1.92691 -2.980872,4.78151 -0.0099,2.95509 1.255702,5.43077 3.301481,6.45825 0.679987,0.34151 1.719326,0.5444 1.720009,0.33576 z M 176.8625,115.01948 c 0.87839,-3.51053 0.41471,-7.82498 -0.97623,-9.08378 -0.62817,-0.56849 -2.12564,-0.63202 -2.74677,-0.11654 -1.90289,1.57926 -1.71159,6.87831 0.33618,9.31193 0.723,0.85924 2.08571,1.80393 2.60461,1.80562 0.16621,5.3e-4 0.51821,-0.86221 0.78221,-1.91723 z"
       id="path940"
       inkscape:export-filename="Commons_Logo_White_Bordered.png"
       inkscape:export-xdpi="131.87358"
       inkscape:export-ydpi="131.87358" /></g></svg>
