<?xml version="1.0" encoding="UTF-8" standalone="no"?>
<!-- Created with Inkscape (http://www.inkscape.org/) -->

<svg
   width="210mm"
   height="297mm"
   viewBox="0 0 210 297"
   version="1.1"
   id="svg5"
   xml:space="preserve"
   inkscape:version="1.2 (dc2aedaf03, 2022-05-15)"
   sodipodi:docname="Commons_Icon_Green.svg"
   xmlns:inkscape="http://www.inkscape.org/namespaces/inkscape"
   xmlns:sodipodi="http://sodipodi.sourceforge.net/DTD/sodipodi-0.dtd"
   xmlns="http://www.w3.org/2000/svg"
   xmlns:svg="http://www.w3.org/2000/svg"><sodipodi:namedview
     id="namedview7"
     pagecolor="#ffffff"
     bordercolor="#000000"
     borderopacity="0.25"
     inkscape:showpageshadow="2"
     inkscape:pageopacity="0.0"
     inkscape:pagecheckerboard="0"
     inkscape:deskcolor="#d1d1d1"
     inkscape:document-units="mm"
     showgrid="false"
     inkscape:zoom="0.914906"
     inkscape:cx="293.47277"
     inkscape:cy="561.80635"
     inkscape:window-width="3072"
     inkscape:window-height="1622"
     inkscape:window-x="6133"
     inkscape:window-y="-11"
     inkscape:window-maximized="1"
     inkscape:current-layer="layer1" /><defs
     id="defs2" /><g
     inkscape:label="Layer 1"
     inkscape:groupmode="layer"
     id="layer1"><g
       id="g1763"
       inkscape:export-filename="commons_logo_green.png"
       inkscape:export-xdpi="96"
       inkscape:export-ydpi="96"><path
         style="fill:#41ab5d;fill-opacity:1;stroke-width:0.192424"
         d="m 90.10068,262.50302 c -6.95583,-0.61261 -15.010166,-3.46964 -20.991936,-7.44626 -4.51768,-3.00331 -9.86475,-8.42795 -12.83192,-13.01806 -5.60094,-8.66445 -8.95336,-18.64014 -10.33516,-30.75403 -2.12645,-18.64188 0.59224,-40.9837 7.4619,-61.32097 2.38182,-7.05125 4.71858,-12.56129 8.28293,-19.53105 14.53414,-28.42016 35.033806,-47.168006 56.894856,-52.032836 4.87347,-1.084513 12.6033,-1.049961 16.73189,0.07479 10.08934,2.748638 17.92775,10.49715 21.42895,21.18318 1.96868,6.008616 2.61117,11.993166 2.15946,20.114796 -0.46517,8.36368 -2.15493,15.04334 -5.4855,21.68431 -3.24169,6.46374 -7.56962,10.64269 -12.62393,12.18936 -1.93387,0.59179 -5.34545,0.59607 -7.53216,0.009 -2.62155,-0.70327 -5.20797,-2.22809 -7.31453,-4.31227 -2.01991,-1.99844 -4.39573,-5.3913 -4.39573,-6.27744 0,-0.25302 0.62586,-1.10981 1.5875,-2.17327 3.88702,-4.29855 6.30516,-7.4795 8.67887,-11.41662 4.7469,-7.87339 7.70624,-16.5759 8.4243,-24.77323 0.59522,-6.794916 -1.21777,-12.094526 -4.91451,-14.365766 -1.12222,-0.68949 -1.1669,-0.6992 -3.5052,-0.76205 -1.7529,-0.0471 -2.63276,0.0153 -3.38526,0.23999 -5.2053,1.55455 -12.57329,8.39316 -19.3552,17.964546 -13.68854,19.31883 -24.00909,45.86296 -27.6442,71.10001 -0.85364,5.9264 -1.08964,8.92979 -1.19796,15.24547 -0.19916,11.61073 0.4482,17.95055 2.46588,24.14924 3.29727,10.12984 11.38239,16.3516 21.25365,16.35533 5.50601,0.002 9.70113,-1.06008 15.47546,-3.91822 6.43054,-3.18293 12.17848,-7.64766 19.62897,-15.24685 7.16451,-7.30751 12.58005,-14.40221 18.77196,-24.59246 l 2.09352,-3.44539 1.20047,1.3115 c 2.73187,2.98451 4.0381,7.30552 3.5299,11.6769 -0.98832,8.50128 -8.79508,22.48653 -19.93314,35.70879 -2.71847,3.22715 -9.76692,10.20991 -12.59168,12.4743 -8.21509,6.58544 -15.63581,10.4689 -24.05303,12.58761 -5.21087,1.31163 -12.21568,1.82481 -17.97942,1.3172 z"
         id="path248" /><rect
         style="fill:none;fill-opacity:1;stroke:none;stroke-width:1.46478;stroke-linecap:round;stroke-linejoin:round"
         id="rect1759"
         width="220"
         height="220"
         x="-4.9999995"
         y="60.15184" /></g></g></svg>
