<?xml version="1.0" encoding="UTF-8" standalone="no"?>
<!-- Created with Inkscape (http://www.inkscape.org/) -->

<svg
   width="210mm"
   height="297mm"
   viewBox="0 0 210 297"
   version="1.1"
   id="svg5"
   xml:space="preserve"
   inkscape:version="1.2 (dc2aedaf03, 2022-05-15)"
   sodipodi:docname="Commons_Favicon_Letter.svg"
   xmlns:inkscape="http://www.inkscape.org/namespaces/inkscape"
   xmlns:sodipodi="http://sodipodi.sourceforge.net/DTD/sodipodi-0.dtd"
   xmlns="http://www.w3.org/2000/svg"
   xmlns:svg="http://www.w3.org/2000/svg"><sodipodi:namedview
     id="namedview7"
     pagecolor="#ffffff"
     bordercolor="#000000"
     borderopacity="0.25"
     inkscape:showpageshadow="2"
     inkscape:pageopacity="0.0"
     inkscape:pagecheckerboard="0"
     inkscape:deskcolor="#d1d1d1"
     inkscape:document-units="mm"
     showgrid="false"
     inkscape:zoom="0.914906"
     inkscape:cx="293.47277"
     inkscape:cy="561.80635"
     inkscape:window-width="3072"
     inkscape:window-height="1622"
     inkscape:window-x="6133"
     inkscape:window-y="-11"
     inkscape:window-maximized="1"
     inkscape:current-layer="layer1" /><defs
     id="defs2" /><g
     inkscape:label="Layer 1"
     inkscape:groupmode="layer"
     id="layer1"><g
       id="g915"
       inkscape:export-filename="favicon.png"
       inkscape:export-xdpi="131.87358"
       inkscape:export-ydpi="131.87358"
       transform="translate(6.3691473,-7.2196133)"><path
         style="fill:#000000;stroke-width:0.248454"
         d="m 82.16789,247.94705 c -7.37125,-1.00616 -14.72603,-3.86822 -20.59873,-8.01584 -2.99046,-2.11203 -8.33882,-7.44307 -10.39963,-10.36596 -4.47304,-6.34421 -7.55305,-13.15866 -9.6014,-21.24287 -5.0048,-19.75245 -3.13379,-46.67334 4.97308,-71.55493 4.73986,-14.54762 12.3314,-29.18667 21.35265,-41.175167 13.33739,-17.724311 29.41026,-28.927176 45.975,-32.044817 3.08786,-0.581166 10.91889,-0.574596 13.50043,0.01132 6.02623,1.36775 10.65243,3.898092 14.95169,8.177945 5.77335,5.747285 9.17728,13.592195 10.20582,23.520968 0.36324,3.506512 0.15748,11.768261 -0.38369,15.406201 -1.68646,11.33692 -6.38185,21.16867 -12.27541,25.70367 -3.2578,2.50682 -6.27973,3.50951 -9.97352,3.30929 -3.9019,-0.2115 -7.33593,-1.81607 -10.45398,-4.88467 -1.54952,-1.52495 -3.9856,-4.89312 -4.33482,-5.99341 -0.1208,-0.3806 0.34437,-1.01922 2.07228,-2.845 9.37426,-9.90521 15.54517,-23.00401 16.70804,-35.465627 0.67991,-7.286083 -1.27413,-12.72986 -5.35802,-14.927009 -0.83027,-0.446689 -1.4027,-0.533862 -3.47837,-0.529715 -2.13623,0.0043 -2.70521,0.09882 -4.05863,0.674477 -4.90583,2.086622 -10.47908,7.157821 -16.18251,14.724745 -16.76662,22.244829 -28.70131,54.695169 -30.83442,83.838569 -0.37991,5.19059 -0.16437,16.89775 0.38452,20.88505 0.51763,3.76012 1.40531,7.41014 2.47707,10.18528 3.13934,8.12876 9.36194,13.37863 17.39314,14.6742 2.27056,0.36629 7.79739,0.16953 9.86945,-0.35135 9.06814,-2.27958 17.37781,-7.45606 26.75346,-16.666 7.84699,-7.70827 14.0073,-15.61431 20.41968,-26.20619 l 2.31838,-3.82948 1.30576,1.40284 c 3.02297,3.24773 4.23998,8.34783 3.19348,13.38294 -1.46986,7.07213 -7.04959,17.63574 -14.54278,27.53259 -13.33344,17.61053 -27.12421,27.94117 -42.24398,31.64491 -5.55388,1.36047 -13.5355,1.78723 -19.13404,1.02303 z"
         id="path302" /><rect
         style="fill:none;stroke:none;stroke-width:2.02258;stroke-linecap:round;stroke-linejoin:round"
         id="rect356"
         width="185.20833"
         height="185.20833"
         x="6.0266886"
         y="63.115448" /></g></g></svg>
